<svg width="81" height="18" viewBox="0 0 81 18" fill="none" xmlns="http://www.w3.org/2000/svg">
<path d="M5.453 15.8215C4.98482 16.9485 4.00613 17.512 2.51692 17.512C1.7476 17.512 1.12298 17.249 0.64304 16.7231C0.236034 16.2582 0.0325317 15.7921 0.0325317 15.3249C0.0325317 14.1087 0.311319 12.3137 0.868894 9.94L1.70172 5.56581L6.28936 5.11501L4.90954 12.2362C4.6531 13.3491 4.52488 14.1005 4.52488 14.4902C4.52488 15.3472 4.83426 15.7909 5.453 15.8215ZM2.11108 2.43135C2.11108 1.84672 2.35576 1.39592 2.84511 1.07896C3.33446 0.764335 3.93203 0.607025 4.63782 0.607025C5.34596 0.607025 5.9153 0.764335 6.34583 1.07896C6.774 1.39592 6.98809 1.84672 6.98809 2.43135C6.98809 3.01833 6.75047 3.46209 6.27525 3.76262C5.80236 4.06315 5.21186 4.21341 4.50371 4.21341C3.79557 4.21341 3.21917 4.06315 2.77453 3.76262C2.33223 3.46209 2.11108 3.01833 2.11108 2.43135ZM14.1236 9.15105C14.3354 8.59461 14.4412 8.07575 14.4412 7.59441C14.4412 6.70689 14.0801 6.26314 13.3579 6.26314C12.9814 6.26314 12.6391 6.43219 12.331 6.77029C12.0204 7.10839 11.8651 7.48875 11.8651 7.9114C11.8651 8.21192 11.9862 8.48192 12.2286 8.7214C12.5744 9.05244 13.192 9.48796 14.0813 10.028C14.9682 10.5704 15.5811 11.0623 15.9199 11.5036C16.2587 11.9475 16.428 12.4734 16.428 13.0815C16.428 13.6919 16.281 14.2742 15.9869 14.8283C15.6952 15.3848 15.2858 15.859 14.7589 16.2512C13.6296 17.0917 12.1616 17.512 10.3547 17.512C9.37601 17.512 8.51025 17.2561 7.75741 16.7442C7.00456 16.2488 6.62814 15.7088 6.62814 15.1242C6.62814 14.5372 6.84223 14.0712 7.27041 13.7259C7.69859 13.3808 8.22908 13.2082 8.86197 13.2082C9.49479 13.2082 10.0065 13.328 10.3971 13.5675C10.2018 14.0629 10.1042 14.4762 10.1042 14.8072C10.1042 15.798 10.5264 16.2934 11.371 16.2934C11.731 16.2934 12.0321 16.1807 12.2745 15.9553C12.5145 15.7299 12.6344 15.4223 12.6344 15.0326C12.6344 14.2672 11.9874 13.4782 10.6935 12.6659C9.6395 11.9756 8.99134 11.4943 8.74904 11.2219C8.34202 10.743 8.1385 10.203 8.1385 9.60183C8.1385 9.00079 8.28205 8.41383 8.56905 7.84096C8.85606 7.27039 9.26308 6.78203 9.79005 6.37584C10.8888 5.53529 12.3944 5.11501 14.3071 5.11501C15.2858 5.11501 16.0646 5.30989 16.6433 5.69964C17.222 6.09175 17.5115 6.61767 17.5115 7.27744C17.5115 7.93957 17.3126 8.45844 16.915 8.83409C16.5151 9.20975 15.954 9.39757 15.2317 9.39757C14.7353 9.39757 14.3659 9.3154 14.1236 9.15105ZM27.4949 13.2505C27.8713 13.5064 28.0594 13.9161 28.0594 14.4797C28.0594 15.0432 27.9171 15.5057 27.6325 15.8672C27.3454 16.2265 26.969 16.5271 26.5032 16.7689C25.5386 17.2643 24.5364 17.512 23.4965 17.512C22.459 17.512 21.6356 17.3993 21.0262 17.1739C20.4146 16.9485 19.9064 16.6257 19.5017 16.2053C18.7018 15.4094 18.3019 14.2825 18.3019 12.8244C18.3019 10.554 18.9194 8.72844 20.1546 7.34787C21.4791 5.8593 23.2942 5.11501 25.5998 5.11501C27.0302 5.11501 28.0983 5.41554 28.8041 6.01661C29.3311 6.46741 29.5945 7.06143 29.5945 7.79867C29.5945 10.4424 27.3066 11.7643 22.7307 11.7643C22.6696 12.1541 22.639 12.5145 22.639 12.8455C22.639 13.5381 22.7931 14.0159 23.1013 14.2789C23.4118 14.5419 23.853 14.6734 24.4246 14.6734C24.9963 14.6734 25.5868 14.5419 26.1962 14.2789C26.8055 14.0159 27.2384 13.6731 27.4949 13.2505ZM22.8895 10.7958C23.9576 10.7958 24.7999 10.4647 25.4163 9.80265C26.035 9.17101 26.3444 8.35279 26.3444 7.34787C26.3444 7.00039 26.2797 6.73273 26.1503 6.54489C26.0232 6.35706 25.8316 6.26314 25.5751 6.26314C25.3186 6.26314 25.0822 6.31245 24.8658 6.41106C24.6469 6.50968 24.4246 6.72333 24.1988 7.05204C23.6412 7.80337 23.2048 9.05127 22.8895 10.7958ZM39.9168 17.512C38.0958 17.512 37.1853 16.8053 37.1853 15.3918C37.1994 15.0021 37.2665 14.4762 37.3864 13.814L37.7958 11.7431C38.2005 9.78974 38.4028 8.59461 38.4028 8.15792C38.4028 7.28683 38.1475 6.85129 37.637 6.85129C36.7783 6.85129 36.1231 7.97009 35.6714 10.2076L34.3375 17.0612L29.7992 17.512L32.1495 5.54468L35.8514 5.11501L35.4914 7.32322C36.1996 5.85109 37.637 5.11501 39.8038 5.11501C40.8578 5.11501 41.6071 5.33689 42.0517 5.78064C42.4964 6.2244 42.7187 6.94169 42.7187 7.93253C42.7187 8.86461 42.4776 10.4201 41.9953 12.599C41.7694 13.5757 41.6565 14.2484 41.6565 14.617C41.6565 14.9833 41.7576 15.2721 41.96 15.4834C42.1647 15.6947 42.4176 15.8144 42.7187 15.8426C42.5682 16.3545 42.2329 16.7607 41.7129 17.0612C41.1931 17.3617 40.5943 17.512 39.9168 17.512ZM51.2765 9.15105C51.4882 8.59461 51.594 8.07575 51.594 7.59441C51.594 6.70689 51.2329 6.26314 50.5106 6.26314C50.1342 6.26314 49.7919 6.43219 49.4837 6.77029C49.1732 7.10839 49.0179 7.48875 49.0179 7.9114C49.0179 8.21192 49.1391 8.48192 49.3814 8.7214C49.7272 9.05244 50.3448 9.48796 51.2341 10.028C52.121 10.5704 52.7339 11.0623 53.0726 11.5036C53.4114 11.9475 53.5808 12.4734 53.5808 13.0815C53.5808 13.6919 53.4338 14.2742 53.1397 14.8283C52.848 15.3848 52.4387 15.859 51.9116 16.2512C50.7824 17.0917 49.3143 17.512 47.5075 17.512C46.5288 17.512 45.663 17.2561 44.9102 16.7442C44.1573 16.2488 43.7809 15.7088 43.7809 15.1242C43.7809 14.5372 43.995 14.0712 44.4232 13.7259C44.8514 13.3808 45.3819 13.2082 46.0147 13.2082C46.6476 13.2082 47.1593 13.328 47.5498 13.5675C47.3546 14.0629 47.2569 14.4762 47.2569 14.8072C47.2569 15.798 47.6793 16.2934 48.5239 16.2934C48.8838 16.2934 49.1849 16.1807 49.4272 15.9553C49.6672 15.7299 49.7872 15.4223 49.7872 15.0326C49.7872 14.2672 49.1402 13.4782 47.8463 12.6659C46.7923 11.9756 46.1442 11.4943 45.9018 11.2219C45.4949 10.743 45.2913 10.203 45.2913 9.60183C45.2913 9.00079 45.4348 8.41383 45.7219 7.84096C46.0089 7.27039 46.4159 6.78203 46.9429 6.37584C48.0415 5.53529 49.5473 5.11501 51.46 5.11501C52.4387 5.11501 53.2173 5.30989 53.7961 5.69964C54.3749 6.09175 54.6642 6.61767 54.6642 7.27744C54.6642 7.93957 54.4654 8.45844 54.0678 8.83409C53.6679 9.20975 53.1067 9.39757 52.3845 9.39757C51.8881 9.39757 51.5188 9.3154 51.2765 9.15105ZM60.4235 17.512C57.111 17.512 55.4547 15.9565 55.4547 12.8455C55.4547 10.6361 56.0652 8.81766 57.2862 7.39014C58.5802 5.87339 60.3493 5.11501 62.5938 5.11501C64.2194 5.11501 65.4463 5.49068 66.2745 6.24201C67.1026 6.99334 67.5166 8.15792 67.5166 9.73574C67.5166 12.14 66.8697 14.0406 65.5758 15.4376C64.31 16.8205 62.5926 17.512 60.4235 17.512ZM61.0128 7.70711C60.8317 8.11331 60.6693 8.62044 60.5258 9.22853C60.3823 9.83669 60.2211 10.622 60.0424 11.5846C59.8612 12.545 59.7706 13.6191 59.7706 14.8072C59.7706 15.1969 59.8341 15.5198 59.9611 15.7757C60.0906 16.0316 60.3282 16.1595 60.674 16.1595C61.0198 16.1595 61.3022 16.0774 61.5209 15.913C61.7398 15.7463 61.9315 15.4681 62.0962 15.0784C62.3973 14.3858 62.6679 13.3972 62.9078 12.113C63.1501 10.8286 63.2819 9.9083 63.3031 9.35179C63.3266 8.79535 63.3384 8.31053 63.3384 7.89731C63.3384 7.48405 63.2784 7.14243 63.1584 6.87242C63.0384 6.60241 62.8091 6.46741 62.4703 6.46741C62.1315 6.46741 61.8491 6.57307 61.6233 6.78438C61.3975 6.99334 61.194 7.30092 61.0128 7.70711ZM75.9191 10.7289C76.4602 9.76626 76.7307 8.79653 76.7307 7.81981C76.7307 7.17413 76.4978 6.85129 76.032 6.85129C75.6697 6.85129 75.3004 7.15886 74.9239 7.77402C74.5334 8.39153 74.2781 9.09822 74.1581 9.89421L72.983 17.0612L68.3071 17.512L70.6115 5.56581L74.3381 5.11501L73.9323 7.39014C74.6686 5.87339 75.8649 5.11501 77.5212 5.11501C78.394 5.11501 79.0677 5.34041 79.5436 5.79121C80.0187 6.24201 80.2562 6.92994 80.2562 7.85505C80.2562 8.77775 79.9501 9.53257 79.3388 10.1196C78.7297 10.7042 77.9057 10.9965 76.8684 10.9965C76.4167 10.9965 76.1002 10.9073 75.9191 10.7289Z" fill="#EB6C6C"/>
</svg>
